# xmcd
#
# Track frame offsets:
#	150
#	16472
#	28375
#	42026
#	57488
#	70387
#	84442
#	99454
#	112760
#	123891
#	140895
#	155494
#	167454
#	179785
#	194697
#	212899
#	232737
#	243704
#	258937
#	269905
#
# Disc length: 3739
#
# Revision: 2
# Processed by: cddbd v1.5.1PL0 Copyright (c) Steve Scherf et al.
# Submitted via: CDex 1.51
# Normalized: r0:TRMNUM;r1:TDELIM( - )
#
DISCID=2a0e9914
DTITLE=Various Artist - Country Complete Volume 5
DYEAR=1900
DGENRE=Country
TTITLE0=Kenny Rogers - Lucille
TTITLE1=Dolly Parton - Jolene
TTITLE2=Kenny Dale - Shame Shame On Me
TTITLE3=Patsy Riggir - Beautiful Lady
TTITLE4=Col Joye - Heaven Is My Womans Love
TTITLE5=Slim Dusty - Lights On The Hill
TTITLE6=Olivia Newton John - Banks Of The Ohio
TTITLE7=John Williamson - I'm In The Mood
TTITLE8=Bill and Boyd - Put Another Log On The Fire
TTITLE9=Johnny Ashcroft - Little Boy Lost
TTITLE10=The Warratahs - Hands Of My Heart
TTITLE11=Skeeter Davis - The End Of The World
TTITLE12=Bobby Bare - 500 Miles Away From Home
TTITLE13=Waylon Jennings - Luckenbach Texas
TTITLE14=James Reyne and Jmaes Blundell - Way Out West
TTITLE15=Kenny Rogers - Coward Of The County
TTITLE16=Charlie Pride - Mississippi Cotton Pickin' Delta Town
TTITLE17=Kenny Dale - Bluest Heartache Of The Year
TTITLE18=Hank Locklin - Please Help Me I'm Falling
TTITLE19=Frank Ifield - I Remember You
EXTD=
EXTT0=
EXTT1=
EXTT2=
EXTT3=
EXTT4=
EXTT5=
EXTT6=
EXTT7=
EXTT8=
EXTT9=
EXTT10=
EXTT11=
EXTT12=
EXTT13=
EXTT14=
EXTT15=
EXTT16=
EXTT17=
EXTT18=
EXTT19=
PLAYORDER=
